<svg xmlns="http://www.w3.org/2000/svg" viewBox="810 457 179 184"><path fill-rule="evenodd" clip-rule="evenodd" fill="#FCFCFA" d="M871.528 461.769C868.63 464.663 869.687 468.312 877.967 484C882.418 492.434 893.349 513.266 902.257 530.295C930.752 584.753 933.349 589.414 935.994 590.828C937.423 591.591 948.105 592.215 959.733 592.215C976.638 592.215 981.488 591.786 983.937 590.073C985.622 588.895 987 587.276 987 586.476C987 584.826 924.331 464.703 922.019 461.92C919.971 459.456 873.982 459.318 871.528 461.769ZM836.814 545.775C831.257 548.603 829.916 550.418 821.365 566.697C816.214 576.501 812 585.634 812 586.993C812 589.19 813.414 589.466 824.746 589.494C838.8 589.527 845.942 591.814 851.783 598.147C853.58 600.096 858.85 608.681 863.495 617.223C873.282 635.219 877.498 639 887.787 639C898.292 639 902.235 635.314 912.861 615.561C917.936 606.127 922.12 597.323 922.162 595.999C922.225 593.942 920.882 593.583 912.935 593.531C889.354 593.38 883.687 589.64 871.277 566.039C863.042 550.379 861.711 548.598 856.123 545.775C852.754 544.071 848.401 542.679 846.449 542.679C844.496 542.679 840.161 544.071 836.814 545.775Z"/></svg>
